<?xml version="1.0" encoding="utf-8"?>
<!-- Generator: Adobe Illustrator 24.0.1, SVG Export Plug-In . SVG Version: 6.00 Build 0)  -->
<svg version="1.1" id="Layer_1" xmlns="http://www.w3.org/2000/svg" xmlns:xlink="http://www.w3.org/1999/xlink" x="0px" y="0px"
	 viewBox="0 0 841.89 595.28" style="enable-background:new 0 0 841.89 595.28;" xml:space="preserve">
<style type="text/css">
	.st0{fill:#FFFFFF;}
	.st1{fill:#2B3990;}
	.st2{fill:#2B3990;stroke:#2B3990;stroke-miterlimit:10;}
	.st3{fill:#00AEEF;}
</style>
<g>
	<path class="st0" d="M235.4,291.89c1.82-0.77,3.2-1.25,4.47-1.92c7.35-3.85,12.58-9.28,12.92-18.11
		c0.53-13.72-7.99-23.21-22.38-24.13c-9.79-0.62-19.65-0.16-29.46-0.45c-3.59-0.11-4.51,1.19-4.49,4.61
		c0.11,16.16,0,32.32-0.03,48.47c-0.01,6.77,0,13.55,0,20.6c5.39,0,9.94,0,14.86,0c0.11-1.93,0.27-3.55,0.28-5.18
		c0.04-6.33,0.19-12.66-0.02-18.99c-0.11-3.35,1.24-4.93,4.31-4.08c1.97,0.54,4.31,1.79,5.32,3.44c4.25,6.95,7.97,14.22,12.08,21.25
		c0.92,1.58,2.55,3.68,4.02,3.83c4.83,0.49,9.75,0.18,15.63,0.18C246.76,311.07,241.2,301.69,235.4,291.89z M392.7,321.06
		c0-19.68,0-39.01,0-58.4c-5.05,0-9.63,0-14.4,0c-0.29,2.61-0.54,4.91-0.87,7.85c-1.24-1.06-1.77-1.44-2.23-1.9
		c-11.86-11.89-31.45-9.2-40.05,5.43c-4.84,8.23-5.52,17.11-3.57,26.08c4.86,22.35,27.24,29.36,44.6,14.21
		c0.26-0.23,0.9-0.03,1.49-0.03c0.17,2.19,0.33,4.31,0.51,6.76C382.93,321.06,387.52,321.06,392.7,321.06z M277.93,296.73
		c2.26-0.11,4.22-0.28,6.17-0.29c11.16-0.03,22.32-0.04,33.48-0.02c2.34,0,4.06-0.17,4.38-3.3c1.24-11.94-4.52-23.18-15.04-28.71
		c-10.27-5.4-26.12-4.03-34.03,2.92c-10.69,9.39-13.67,28.76-6.36,41.32c7.09,12.19,22.62,17.24,37.23,11.89
		c8.02-2.94,13.38-8.56,16.48-16.84c-11.85-0.96-12.01-0.93-21.35,4.81C290.08,313.93,278.9,308.11,277.93,296.73z M88.53,188.07
		c-21.11,17.59-42,34.99-63.09,52.56c2.87,3.79,5.24,6.92,7.77,10.25c17.49-14.65,34.64-28.89,51.61-43.33
		c2.72-2.31,4.37-2.45,7.09-0.07c7.02,6.13,14.35,11.91,21.54,17.85c10.23,8.45,20.46,16.91,30.91,25.55
		c2.7-3.48,5.1-6.57,7.69-9.91C130.73,223.2,109.79,205.76,88.53,188.07z M49.84,285.89c0.16,21.58,17.67,38.76,39.39,38.65
		c20.8-0.11,38.48-18.04,38.27-38.83c-0.21-21.5-17.51-38.57-38.99-38.49C66.92,247.3,49.68,264.54,49.84,285.89z M409.01,243.55
		c0,26.14,0,51.82,0,77.39c5.11,0,9.67,0,14.25,0c0-26.01,0-51.58,0-77.39C418.4,243.55,413.96,243.55,409.01,243.55z M606.88,262.8
		c0,2.39,0.01,4.19,0,6c-0.03,10.16,0.15,20.32-0.17,30.47c-0.32,9.92-6.72,16.03-16.51,16.41c-12.11,0.47-18.47-5.27-18.79-17.4
		c-0.27-10.48-0.19-20.98-0.16-31.47c0.01-2.68-0.34-4.38-3.74-4.35c-3.32,0.03-3.8,1.64-3.77,4.35
		c0.09,10.49,0.14,20.98,0.06,31.47c-0.07,9.74,2.82,18.04,12.42,21.91c9.99,4.03,19.57,2.98,27.78-4.78
		c0.6-0.56,1.48-0.82,2.52-1.37c0.25,2.62,0.44,4.71,0.65,6.9c2.51,0,4.71,0,6.86,0c0-19.63,0-38.83,0-58.15
		C611.59,262.8,609.64,262.8,606.88,262.8z M677.22,277.89c-1.74-3.42-2.85-6.8-4.91-9.42c-7.29-9.29-26.76-9.62-34.68-0.82
		c-7,7.77-5.1,18.34,4.4,22.89c4.17,2,8.75,3.14,13.12,4.72c3.43,1.24,7.03,2.2,10.18,3.95c4.89,2.71,5.56,9.19,1.78,13.28
		c-5.67,6.13-21.74,4.61-25.09-2.96c-2.19-4.94-5.09-4.62-9.58-3.66c0.68,2.04,1.05,3.99,1.95,5.66
		c6.06,11.3,25.03,14.85,36.12,6.84c9.77-7.06,9.11-19.09-1.55-24.6c-3.66-1.89-7.73-2.98-11.63-4.38
		c-3.75-1.35-7.72-2.24-11.24-4.02c-5.16-2.62-6.28-8.63-2.93-13.18c4.98-6.77,20.35-5.93,23.72,1.78
		C669.09,279.03,672.12,278.96,677.22,277.89z M457.16,253.61c6.13,0,11.76,0.17,17.37-0.06c3.69-0.15,4.86,1.12,4.82,4.87
		c-0.2,18.47-0.13,36.95-0.16,55.42c0,2.28,0,4.56,0,7.02c2.8,0,4.99,0,7.66,0c0-3.57,0-6.71,0-9.85c0-17.14,0.12-34.29-0.1-51.43
		c-0.05-4.42,0.97-6.39,5.8-6.01c5.23,0.41,10.52,0.09,16.23,0.09c-0.13-2.53-0.22-4.23-0.3-5.78c-17.47,0-34.34,0-51.33,0
		C457.16,249.83,457.16,251.3,457.16,253.61z M688.58,268.42c7.5,1.59,7.5,1.59,7.49,9.72c0,9.32-0.08,18.65,0.01,27.97
		c0.1,10.27,4.65,14.84,14.97,15.23c1,0.04,2,0.04,3,0.04c5.65,0.02,6.07-0.61,4.2-6.7c-1.23,0-2.54,0.01-3.85,0
		c-8.86-0.05-10.61-1.7-10.71-10.37c-0.09-7.99-0.14-15.98-0.12-23.97c0.03-10.93,0.07-10.93,11.2-11.23
		c0.33-0.01,0.79,0.13,0.98-0.04c1.16-1,2.91-1.91,3.23-3.16c0.64-2.51-1.01-3.47-3.51-3.34c-2.49,0.14-5-0.13-7.48,0.07
		c-3.19,0.25-4.58-0.86-4.37-4.21c0.22-3.43,0.05-6.88,0.05-10.38c-3,0-5.19,0-7.67,0c0,3.92,0.31,7.44-0.15,10.86
		c-0.18,1.35-2.13,3.53-3.21,3.5C687.47,262.25,687.88,265.08,688.58,268.42z M522.2,320.85c7.33,1.05,7.39,1.01,7.41-5.48
		c0.04-10.16-0.13-20.32,0.16-30.47c0.23-8.3,5.09-13.55,13.23-15.08c1.9-0.36,3.83-0.6,6.04-0.95c-0.12-2.61-0.22-4.83-0.33-7.34
		c-7.92,0.43-13.9,3.27-18.67,10.62c-0.31-4.05-0.51-6.6-0.72-9.29c-2.52,0-4.72,0-7.13,0C522.2,282.34,522.2,301.43,522.2,320.85z
		 M32.11,218.1c7.04-5.8,13.26-10.9,19.43-16.07c0.44-0.37,0.61-1.15,0.76-1.77c2.33-9.53,0.16-12.28-9.58-12.23
		c-2.49,0.01-5.03-0.26-7.44,0.17c-1.18,0.21-3.01,1.72-3.04,2.68C32.01,199.59,32.11,208.31,32.11,218.1z"/>
	<path class="st1" d="M235.4,291.89c5.8,9.79,11.37,19.17,17.51,29.54c-5.88,0-10.79,0.3-15.63-0.18c-1.47-0.15-3.1-2.25-4.02-3.83
		c-4.11-7.03-7.84-14.3-12.08-21.25c-1.01-1.65-3.35-2.9-5.32-3.44c-3.07-0.85-4.42,0.73-4.31,4.08c0.21,6.32,0.06,12.66,0.02,18.99
		c-0.01,1.63-0.17,3.25-0.28,5.18c-4.92,0-9.47,0-14.86,0c0-7.05-0.01-13.83,0-20.6c0.03-16.16,0.14-32.32,0.03-48.47
		c-0.02-3.41,0.9-4.71,4.49-4.61c9.82,0.29,19.67-0.17,29.46,0.45c14.39,0.92,22.91,10.4,22.38,24.13
		c-0.34,8.83-5.57,14.26-12.92,18.11C238.6,290.64,237.22,291.12,235.4,291.89z M220.69,260.13c0-0.05,0-0.1,0-0.15
		c-1.33,0-2.67,0.13-3.98-0.03c-3.76-0.46-5.51,0.76-5.17,4.91c0.37,4.46-0.08,8.98,0.32,13.43c0.1,1.16,1.94,2.99,3.1,3.08
		c4.12,0.33,8.32,0.34,12.43-0.07c6.07-0.6,9.5-4.73,9.5-10.75c0-6.03-3.44-9.78-9.74-10.39
		C225.02,259.95,222.85,260.13,220.69,260.13z"/>
	<path class="st1" d="M392.7,321.06c-5.17,0-9.76,0-14.51,0c-0.19-2.45-0.35-4.58-0.51-6.76c-0.58,0-1.22-0.2-1.49,0.03
		c-17.36,15.15-39.75,8.14-44.6-14.21c-1.95-8.97-1.27-17.85,3.57-26.08c8.59-14.63,28.19-17.32,40.05-5.43
		c0.46,0.46,0.98,0.84,2.23,1.9c0.32-2.94,0.58-5.23,0.87-7.85c4.77,0,9.35,0,14.4,0C392.7,282.05,392.7,301.38,392.7,321.06z
		 M346.08,291.37c-0.11,10.26,6.32,17.59,15.59,17.78c9.39,0.19,16.19-6.99,16.19-17.11c0-10.36-6.28-17.25-15.88-17.43
		C352.75,274.43,346.18,281.35,346.08,291.37z"/>
	<path class="st1" d="M277.93,296.73c0.97,11.37,12.15,17.2,20.97,11.78c9.34-5.74,9.5-5.77,21.35-4.81
		c-3.1,8.28-8.47,13.9-16.48,16.84c-14.61,5.35-30.14,0.31-37.23-11.89c-7.31-12.56-4.32-31.93,6.36-41.32
		c7.91-6.96,23.76-8.32,34.03-2.92c10.52,5.53,16.29,16.77,15.04,28.71c-0.33,3.13-2.04,3.3-4.38,3.3
		c-11.16-0.02-22.32-0.02-33.48,0.02C282.14,296.45,280.19,296.62,277.93,296.73z M278.33,287.25c8.72,0,17.46,0.07,26.19-0.14
		c0.67-0.02,1.95-2.07,1.83-3.04c-0.8-6.24-8.12-11.12-15.41-10.52C283.29,274.19,278.28,279.38,278.33,287.25z"/>
	<path class="st2" d="M88.53,188.07c21.25,17.7,42.19,35.13,63.53,52.9c-2.59,3.34-4.99,6.43-7.69,9.91
		c-10.46-8.64-20.68-17.11-30.91-25.55c-7.19-5.94-14.52-11.71-21.54-17.85c-2.72-2.38-4.38-2.25-7.09,0.07
		c-16.97,14.44-34.12,28.68-51.61,43.33c-2.52-3.33-4.9-6.46-7.77-10.25C46.53,223.06,67.42,205.66,88.53,188.07z"/>
	<path class="st3" d="M49.84,285.89c-0.16-21.35,17.08-38.59,38.67-38.67c21.49-0.08,38.78,16.99,38.99,38.49
		c0.21,20.79-17.47,38.72-38.27,38.83C67.51,324.65,50,307.47,49.84,285.89z M120.97,285.91c-0.02-18.3-14.35-32.5-32.74-32.45
		c-17.56,0.05-32.08,14.68-31.98,32.22c0.11,18.17,14.79,32.76,32.8,32.62C106.51,318.16,120.99,303.47,120.97,285.91z"/>
	<path class="st1" d="M409.01,243.55c4.95,0,9.39,0,14.25,0c0,25.81,0,51.38,0,77.39c-4.58,0-9.13,0-14.25,0
		C409.01,295.37,409.01,269.69,409.01,243.55z"/>
	<path class="st1" d="M606.88,262.8c2.76,0,4.71,0,7.16,0c0,19.32,0,38.52,0,58.15c-2.15,0-4.35,0-6.86,0
		c-0.21-2.19-0.4-4.28-0.65-6.9c-1.04,0.55-1.92,0.81-2.52,1.37c-8.21,7.76-17.8,8.81-27.78,4.78c-9.6-3.88-12.49-12.17-12.42-21.91
		c0.07-10.49,0.03-20.98-0.06-31.47c-0.02-2.71,0.45-4.32,3.77-4.35c3.4-0.03,3.75,1.67,3.74,4.35
		c-0.03,10.49-0.11,20.99,0.16,31.47c0.31,12.13,6.68,17.87,18.79,17.4c9.78-0.38,16.19-6.49,16.51-16.41
		c0.32-10.15,0.14-20.31,0.17-30.47C606.88,266.99,606.88,265.18,606.88,262.8z"/>
	<path class="st1" d="M677.22,277.89c-5.1,1.07-8.14,1.14-10.34-3.91c-3.37-7.72-18.73-8.55-23.72-1.78
		c-3.35,4.55-2.23,10.56,2.93,13.18c3.52,1.79,7.49,2.68,11.24,4.02c3.9,1.4,7.97,2.49,11.63,4.38c10.66,5.51,11.32,17.54,1.55,24.6
		c-11.09,8.01-30.06,4.46-36.12-6.84c-0.9-1.67-1.26-3.62-1.95-5.66c4.49-0.96,7.39-1.28,9.58,3.66c3.35,7.57,19.42,9.09,25.09,2.96
		c3.78-4.09,3.11-10.56-1.78-13.28c-3.15-1.75-6.76-2.71-10.18-3.95c-4.37-1.59-8.95-2.73-13.12-4.72
		c-9.5-4.55-11.39-15.12-4.4-22.89c7.92-8.79,27.39-8.47,34.68,0.82C674.37,271.09,675.48,274.47,677.22,277.89z"/>
	<path class="st1" d="M457.16,253.61c0-2.31,0-3.78,0-5.72c16.99,0,33.86,0,51.33,0c0.08,1.56,0.17,3.26,0.3,5.78
		c-5.71,0-11,0.32-16.23-0.09c-4.83-0.38-5.86,1.59-5.8,6.01c0.21,17.14,0.09,34.29,0.1,51.43c0,3.14,0,6.28,0,9.85
		c-2.67,0-4.86,0-7.66,0c0-2.46,0-4.74,0-7.02c0.03-18.47-0.04-36.95,0.16-55.42c0.04-3.75-1.12-5.02-4.82-4.87
		C468.92,253.78,463.29,253.61,457.16,253.61z"/>
	<path class="st1" d="M688.58,268.42c-0.7-3.35-1.11-6.17,4.05-6.03c1.09,0.03,3.03-2.15,3.21-3.5c0.46-3.42,0.15-6.94,0.15-10.86
		c2.48,0,4.67,0,7.67,0c0,3.5,0.17,6.95-0.05,10.38c-0.21,3.35,1.18,4.46,4.37,4.21c2.48-0.2,5,0.07,7.48-0.07
		c2.49-0.14,4.15,0.83,3.51,3.34c-0.32,1.25-2.07,2.16-3.23,3.16c-0.19,0.17-0.65,0.03-0.98,0.04c-11.13,0.3-11.17,0.3-11.2,11.23
		c-0.02,7.99,0.02,15.98,0.12,23.97c0.1,8.67,1.85,10.33,10.71,10.37c1.31,0.01,2.62,0,3.85,0c1.87,6.09,1.45,6.73-4.2,6.7
		c-1,0-2,0-3-0.04c-10.32-0.39-14.87-4.95-14.97-15.23c-0.09-9.32-0.01-18.65-0.01-27.97C696.08,270.02,696.08,270.02,688.58,268.42
		z"/>
	<path class="st1" d="M522.2,320.85c0-19.42,0-38.51,0-57.99c2.41,0,4.61,0,7.13,0c0.21,2.7,0.4,5.24,0.72,9.29
		c4.77-7.35,10.75-10.2,18.67-10.62c0.11,2.51,0.21,4.73,0.33,7.34c-2.21,0.34-4.14,0.59-6.04,0.95c-8.14,1.53-13,6.78-13.23,15.08
		c-0.28,10.15-0.12,20.31-0.16,30.47C529.58,321.86,529.53,321.9,522.2,320.85z"/>
	<path class="st2" d="M32.11,218.1c0-9.79-0.1-18.51,0.14-27.22c0.03-0.96,1.86-2.47,3.04-2.68c2.41-0.43,4.95-0.16,7.44-0.17
		c9.74-0.05,11.9,2.7,9.58,12.23c-0.15,0.62-0.32,1.4-0.76,1.77C45.36,207.19,39.14,212.3,32.11,218.1z"/>
	<path class="st0" d="M220.69,260.13c2.16,0,4.33-0.18,6.47,0.03c6.3,0.62,9.73,4.36,9.74,10.39c0,6.01-3.43,10.14-9.5,10.75
		c-4.11,0.41-8.31,0.4-12.43,0.07c-1.16-0.09-3-1.92-3.1-3.08c-0.4-4.45,0.05-8.98-0.32-13.43c-0.34-4.15,1.4-5.36,5.17-4.91
		c1.31,0.16,2.65,0.03,3.98,0.03C220.69,260.02,220.69,260.07,220.69,260.13z"/>
	<path class="st0" d="M346.08,291.37c0.11-10.02,6.67-16.94,15.9-16.77c9.6,0.18,15.88,7.08,15.88,17.43
		c0,10.12-6.8,17.3-16.19,17.11C352.4,308.96,345.97,301.63,346.08,291.37z"/>
	<path class="st0" d="M278.33,287.25c-0.05-7.87,4.95-13.06,12.61-13.69c7.28-0.6,14.61,4.28,15.41,10.52
		c0.12,0.96-1.16,3.02-1.83,3.04C295.79,287.32,287.05,287.25,278.33,287.25z"/>
	<path class="st0" d="M120.97,285.91c0.02,17.56-14.45,32.25-31.92,32.39c-18.02,0.15-32.69-14.45-32.8-32.62
		c-0.1-17.53,14.42-32.17,31.98-32.22C106.62,253.41,120.95,267.61,120.97,285.91z M79.05,302.45
		c10.11-10.05,19.79-19.67,29.72-29.55c-1.04-0.81-2.27-1.77-4.85-3.79c-7.96,8.66-15.77,17.15-23.49,25.55
		c-10.03-8.15-10.03-8.15-12.19-4.91C72.13,294.33,75.86,298.71,79.05,302.45z"/>
	<path class="st3" d="M79.05,302.45c-3.19-3.74-6.92-8.12-10.81-12.69c2.15-3.24,2.15-3.24,12.19,4.91
		c7.72-8.4,15.53-16.89,23.49-25.55c2.59,2.02,3.82,2.98,4.85,3.79C98.84,282.78,89.16,292.4,79.05,302.45z"/>
</g>
</svg>
